<svg width="56" height="56" fill="none" xmlns="http://www.w3.org/2000/svg"><circle cx="28" cy="28" r="28" fill="#F3FBF8"/><g clip-path="url(#clip0_32_181)"><path d="M43.954 24.329a.937.937 0 00-.757-.639l-9.92-1.441-4.436-8.99a.937.937 0 00-1.681 0l-4.437 8.99-9.92 1.442a.937.937 0 00-.52 1.599l7.178 6.997-1.694 9.88a.938.938 0 001.36.988L28 38.49l8.873 4.665a.937.937 0 001.36-.988l-1.695-9.88 7.179-6.997a.937.937 0 00.237-.961z" fill="#FED42D"/><path d="M43.954 24.329a.937.937 0 00-.757-.639l-9.92-1.441-4.436-8.99a.937.937 0 00-.84-.522V38.49l8.872 4.665a.935.935 0 00.987-.071.938.938 0 00.373-.917l-1.695-9.88 7.179-6.997a.937.937 0 00.237-.961z" fill="#FCBF29"/></g><defs><clipPath id="clip0_32_181"><path fill="#fff" transform="translate(12 12)" d="M0 0h32v32H0z"/></clipPath></defs></svg>