<svg width="88" height="88" fill="none" xmlns="http://www.w3.org/2000/svg"><path fill="#F6F6F6" d="M4 0h80v80H4z"/><g opacity=".2" filter="url(#filter0_f_4487_6)"><circle cx="44" cy="44" r="39" stroke="url(#paint0_linear_4487_6)" stroke-width="2"/></g><circle cx="44" cy="40" r="39" stroke="url(#paint1_linear_4487_6)" stroke-width="2"/><path d="M55.277 28.563L43.839 40" stroke="#1F6DE2" stroke-width="2" stroke-linecap="round"/><path d="M44 27.5h-5.346a7 7 0 00-7 7v11a7 7 0 007 7h10.692a7 7 0 007-7V40" stroke="url(#paint2_linear_4487_6)" stroke-width="2"/><path d="M49.539 27.5h6.8v6.8" stroke="#1F6DE2" stroke-width="2" stroke-linejoin="round"/><path d="M37.5 57h13" stroke="#1F6DE2" stroke-width="2" stroke-linecap="round"/><defs><linearGradient id="paint0_linear_4487_6" x1="4" y1="84" x2="89.858" y2="73.29" gradientUnits="userSpaceOnUse"><stop stop-color="#1F6DE2"/><stop offset="1" stop-color="#1C77FF"/></linearGradient><linearGradient id="paint1_linear_4487_6" x1="4" y1="80" x2="89.858" y2="69.29" gradientUnits="userSpaceOnUse"><stop stop-color="#1F6DE2"/><stop offset="1" stop-color="#1C77FF"/></linearGradient><linearGradient id="paint2_linear_4487_6" x1="31.654" y1="52.5" x2="58.164" y2="49.234" gradientUnits="userSpaceOnUse"><stop stop-color="#1F6DE2"/><stop offset="1" stop-color="#1C77FF"/></linearGradient><filter id="filter0_f_4487_6" x="0" y="0" width="88" height="88" filterUnits="userSpaceOnUse" color-interpolation-filters="sRGB"><feFlood flood-opacity="0" result="BackgroundImageFix"/><feBlend in="SourceGraphic" in2="BackgroundImageFix" result="shape"/><feGaussianBlur stdDeviation="2" result="effect1_foregroundBlur_4487_6"/></filter></defs></svg>