<svg width="95" height="95" fill="none" xmlns="http://www.w3.org/2000/svg"><rect width="95" height="95" rx="47.5" fill="#BA9FB7"/><path d="M74.922 39.348c-1.58-1.712-3.83-2.657-6.33-2.657h-6.02v-3.255A1.44 1.44 0 0061.136 32H32.463a1.44 1.44 0 00-1.436 1.436v5.002h-5.589a1.44 1.44 0 00-1.436 1.436c0 .79.646 1.436 1.436 1.436h7.037a1.44 1.44 0 001.436-1.436v-5.002h25.801v22.51H46.19c-.06 0-.12 0-.18.012a4.84 4.84 0 00-4.475-3.027 4.819 4.819 0 00-4.476 3.051 1.381 1.381 0 00-.31-.036H33.91v-5.014a1.44 1.44 0 00-1.436-1.436h-7.037a1.44 1.44 0 00-1.436 1.436c0 .79.646 1.436 1.436 1.436h5.589v5.002c0 .79.646 1.436 1.436 1.436h4.368A4.814 4.814 0 0041.534 64a4.824 4.824 0 004.703-3.758h17.209C63.936 62.384 65.85 64 68.149 64a4.824 4.824 0 004.703-3.758h3.207a1.44 1.44 0 001.436-1.436v-11.93c0-3.1-.897-5.71-2.573-7.528zM41.534 61.14a1.951 1.951 0 110-3.902 1.951 1.951 0 010 3.902zm26.615 0a1.951 1.951 0 111.95-1.95c-.011 1.076-.885 1.95-1.95 1.95zm6.474-3.758h-2.01c-.719-1.759-2.454-3.015-4.464-3.015a4.825 4.825 0 00-4.464 3.015h-1.1V39.563h6.019c3.77 0 6.019 2.74 6.019 7.324v10.495z" fill="#fff"/><path d="M43.664 48.814a1.437 1.437 0 001.017 2.453c.371 0 .73-.144 1.018-.419l3.697-3.698.012-.012c.024-.035.06-.06.084-.095.012-.024.024-.036.036-.06.012-.024.024-.036.048-.06l.036-.072c.012-.024.024-.036.036-.06l.036-.071c.012-.024.024-.036.024-.06.011-.024.011-.048.023-.072.012-.024.012-.048.024-.06.012-.024.012-.048.012-.072 0-.024.012-.048.012-.072 0-.023.012-.047.012-.083 0-.024.012-.036.012-.06a1.15 1.15 0 000-.287c0-.024 0-.036-.012-.06 0-.024-.012-.048-.012-.084 0-.024-.012-.048-.012-.072 0-.024-.012-.048-.012-.072-.012-.023-.012-.047-.024-.06-.012-.023-.012-.047-.023-.071-.012-.024-.024-.036-.024-.06l-.036-.072c-.012-.024-.024-.036-.036-.06l-.036-.072a.21.21 0 00-.048-.06c-.012-.023-.024-.035-.036-.06-.024-.035-.06-.059-.084-.095l-.012-.012-3.518-3.518a1.437 1.437 0 10-2.034 2.034l1.065 1.065H20.436A1.44 1.44 0 0019 46.061c0 .79.646 1.436 1.436 1.436h24.46l-1.232 1.317z" fill="#fff"/></svg>