<svg width="26" height="26" fill="none" xmlns="http://www.w3.org/2000/svg"><path fill-rule="evenodd" clip-rule="evenodd" d="M12.74 14.963l4.333-4.22 1.427 1.39-5.76 5.61L9 14.1l1.427-1.39 2.314 2.254z" fill="#1F6DE2"/><path fill-rule="evenodd" clip-rule="evenodd" d="M3.66 7.276A11.548 11.548 0 1024.3 16.61h-.002a10.81 10.81 0 00.296-2.503h-2c0 1.908-.634 3.728-1.696 5.329A9.548 9.548 0 1113.28 4.45l-1.244 1.23 1.406 1.423 2.7-2.67.71-.701-.7-.711L13.183 0l-1.426 1.402 1.031 1.049A11.548 11.548 0 003.66 7.276z" fill="#1F6DE2"/></svg>