<svg width="18" height="14" fill="none" xmlns="http://www.w3.org/2000/svg"><path fill-rule="evenodd" clip-rule="evenodd" d="M16.157 3.487c.007.151.01.304.01.457C16.168 8.614 12.454 14 5.662 14 3.575 14 1.634 13.415 0 12.412c.289.033.583.05.881.05 1.73 0 3.322-.565 4.586-1.514-1.616-.028-2.98-1.05-3.45-2.454a3.84 3.84 0 001.668-.06C1.996 8.109.723 6.68.723 4.968v-.045a3.804 3.804 0 001.673.443C1.405 4.732.753 3.65.753 2.424c0-.648.182-1.255.5-1.777C3.075 2.785 5.796 4.192 8.865 4.34a3.4 3.4 0 01-.096-.806C8.77 1.582 10.423 0 12.462 0c1.062 0 2.022.43 2.696 1.116a7.596 7.596 0 002.345-.858 3.577 3.577 0 01-1.624 1.956A7.644 7.644 0 0018 1.657a7.329 7.329 0 01-1.843 1.83z" fill="#181818"/></svg>