<svg width="18" height="21" fill="none" xmlns="http://www.w3.org/2000/svg"><path fill-rule="evenodd" clip-rule="evenodd" d="M8.994 21C2.998 18.449 0 15.903 0 13.364V3.818c0-.733.294-.903 1.11-1.374.246-.143.54-.313.889-.535C2.16 1.806 5.559 0 8.994 0c2.993 0 5.497.955 6.996 1.91.348.22.642.391.889.534.815.471 1.11.641 1.11 1.374.019.208.01 4.616.003 7.44v.003l-.004 2.103c0 2.545-2.998 5.09-8.994 7.636zm6.995-7.54l.001-1.19.004-1.865.004-1.616c.003-2.131.002-3.96 0-4.526l-.137-.082a44.774 44.774 0 01-.981-.592C13.405 2.65 11.253 2 8.994 2c-2.16 0-4.967 1.004-5.886 1.59-.236.15-.657.4-.98.591L2 4.257v9.202C2 14.9 4.227 16.867 8.995 19c4.768-2.128 6.994-4.095 6.994-5.54zM11.648 7l-4.104 4.22-2.192-2.254L4 10.356 7.544 14 13 8.39 11.648 7z" fill="#1F6DE2"/></svg>