<svg width="28" height="27" fill="none" xmlns="http://www.w3.org/2000/svg"><path d="M14 21.242l.484-.875-.484-.268-.484.268.484.875zM7.202 25l-.987-.161-.332 2.033 1.802-.997L7.202 25zM8.5 17.04l.987.161.081-.498-.352-.361-.716.698zM3 11.403l-.151-.988-1.924.294 1.36 1.393.715-.699zm7.6-1.161l.152.988.527-.08.227-.483-.905-.425zM14 3l.905-.425L14 .646l-.905 1.93L14 3zm3.4 7.242l-.906.425.227.483.527.08.151-.988zm7.6 1.161l.716.699 1.359-1.393-1.924-.294-.151.988zm-5.5 5.637l-.716-.698-.352.361.081.498.987-.16zM20.798 25l-.483.875 1.802.997-.332-2.033-.987.161zm-7.282-4.633l-6.798 3.758.967 1.75 6.799-3.758-.968-1.75zM8.19 25.16l1.298-7.96-1.974-.322-1.298 7.96 1.974.322zm1.027-8.819l-5.5-5.637-1.432 1.397 5.5 5.637 1.432-1.397zm-6.065-3.95l7.6-1.162-.301-1.977-7.601 1.162.302 1.977zm8.355-1.725l3.4-7.242-1.811-.85-3.4 7.242 1.811.85zm1.589-7.242l3.399 7.242 1.81-.85-3.399-7.242-1.81.85zm4.153 7.805l7.601 1.162.302-1.977-7.6-1.162-.303 1.977zm7.036-.525l-5.5 5.637 1.432 1.397 5.5-5.637-1.432-1.397zM18.513 17.2l1.298 7.96 1.974-.322-1.298-7.96-1.974.322zm2.77 6.924l-6.8-3.758-.967 1.75 6.799 3.758.967-1.75z" fill="#1F6DE2"/></svg>