<svg width="15" height="16" viewBox="0 0 15 16" fill="none" xmlns="http://www.w3.org/2000/svg">
<path fill-rule="evenodd" clip-rule="evenodd" d="M0 7.73438C0 11.8765 3.35786 15.2344 7.5 15.2344C11.6421 15.2344 15 11.8765 15 7.73438C15 3.59224 11.6421 0.234375 7.5 0.234375C3.35786 0.234375 0 3.59224 0 7.73438ZM13.6364 7.73437C13.6364 11.1234 10.889 13.8707 7.49999 13.8707C4.11097 13.8707 1.36363 11.1234 1.36363 7.73437C1.36363 4.34535 4.11097 1.598 7.49999 1.598C10.889 1.598 13.6364 4.34535 13.6364 7.73437ZM7.50023 11.8241C7.87691 11.8241 8.18227 11.5189 8.18227 11.1423C8.18227 10.7658 7.87691 10.4605 7.50023 10.4605C7.12355 10.4605 6.81819 10.7658 6.81819 11.1423C6.81819 11.5189 7.12355 11.8241 7.50023 11.8241ZM8.18425 3.64227H6.82017V9.09682H8.18425V3.64227Z" fill="#DB0000"/>
</svg>
