<svg width="80" height="80" viewBox="0 0 80 80" fill="none" xmlns="http://www.w3.org/2000/svg">
<rect width="80" height="80" fill="#F6F6F6"/>
<path d="M34 57H47" stroke="#1F6DE2" stroke-width="2" stroke-linecap="round"/>
<path fill-rule="evenodd" clip-rule="evenodd" d="M33.998 27.5003C33.998 26.9479 33.5476 26.4926 33.0007 26.5708C29.6081 27.0557 27 29.9733 27 33.5V46.5006C27 50.3666 30.134 53.5006 34 53.5006H47C50.866 53.5006 54 50.3666 54 46.5006V33.5C54 29.9747 51.394 27.058 48.0033 26.5714C47.4562 26.4928 47.0054 26.9482 47.0054 27.5009C47.0054 28.0529 47.457 28.49 47.998 28.5996C50.2812 29.0621 52 31.0803 52 33.5V46.5006C52 49.262 49.7614 51.5006 47 51.5006H34C31.2386 51.5006 29 49.262 29 46.5006V33.5C29 31.0793 30.7202 29.0605 33.0048 28.599C33.546 28.4897 33.998 28.0525 33.998 27.5003ZM38.4984 27.5C38.4984 28.0523 38.9462 28.5 39.4984 28.5H41.5015C42.0538 28.5 42.5015 28.0523 42.5015 27.5C42.5015 26.9477 42.0538 26.5 41.5015 26.5H39.4984C38.9462 26.5 38.4984 26.9477 38.4984 27.5Z" fill="#1F6DE2"/>
<path d="M43.7524 25.5C43.7524 24.9477 44.2002 24.5 44.7524 24.5C45.3047 24.5 45.7524 24.9477 45.7524 25.5V29.4951C45.7524 30.0474 45.3047 30.4951 44.7524 30.4951C44.2002 30.4951 43.7524 30.0474 43.7524 29.4951V25.5Z" fill="#1F6DE2"/>
<rect x="35.25" y="24.5" width="2" height="6" rx="1" fill="#1F6DE2"/>
<path d="M36 40.0386L39.5262 43.5029L46 37.5029" stroke="#1F6DE2" stroke-width="2" stroke-linecap="round"/>
</svg>
