<svg width="18" height="14" viewBox="0 0 18 14" fill="none" xmlns="http://www.w3.org/2000/svg">
<path fill-rule="evenodd" clip-rule="evenodd" d="M16.1573 3.48664C16.1643 3.6383 16.1679 3.79077 16.1679 3.94385C16.1679 8.61453 12.4535 14 5.66088 14C3.57538 14 1.63423 13.415 0 12.412C0.288915 12.4448 0.582802 12.4616 0.880974 12.4616C2.61115 12.4616 4.20344 11.8966 5.46739 10.9484C3.85138 10.92 2.48749 9.89815 2.01749 8.49394C2.24309 8.53534 2.47447 8.55754 2.71241 8.55754C3.04921 8.55754 3.3755 8.51412 3.68538 8.4335C1.99606 8.1087 0.723031 6.68031 0.723031 4.96792C0.723031 4.95299 0.723031 4.93816 0.723374 4.9234C1.2212 5.1881 1.79058 5.34714 2.39601 5.36551C1.40503 4.73171 0.75326 3.64984 0.75326 2.42374C0.75326 1.77594 0.935375 1.16889 1.25332 0.646762C3.07464 2.78519 5.79579 4.1922 8.86494 4.33975C8.80192 4.08096 8.76911 3.81117 8.76911 3.53422C8.76911 1.58245 10.4227 0 12.462 0C13.5243 0 14.484 0.429151 15.1576 1.116C15.9987 0.957674 16.7891 0.663388 17.5027 0.25841C17.227 1.08379 16.6415 1.77627 15.879 2.21379C16.6261 2.12831 17.3377 1.93826 18 1.65716C17.505 2.36588 16.879 2.98842 16.1573 3.48664Z" fill="#181818"/>
</svg>
