<svg width="18" height="20" viewBox="0 0 18 20" fill="none" xmlns="http://www.w3.org/2000/svg">
<path fill-rule="evenodd" clip-rule="evenodd" d="M18 20H3C1.34315 20 0 18.6569 0 17V3C0 1.34315 1.34315 0 3 0H18V16C17.4477 16 17 16.4477 17 17C17 17.5523 17.4477 18 18 18V20ZM14.8315 17C14.8315 16.6494 14.8909 16.3128 15 16H2.98704C2.44191 16 2 16.4477 2 17C2 17.5523 2.44191 18 2.98704 18H15C14.8909 17.6872 14.8315 17.3506 14.8315 17ZM3 2H16V13.8317H3C2.64936 13.8317 2.31278 13.891 2 14V2.98597C2 2.44144 2.44772 2 3 2Z" fill="#1F6DE2"/>
</svg>
