<svg width="28" height="27" viewBox="0 0 28 27" fill="none" xmlns="http://www.w3.org/2000/svg">
<path d="M14 21.242L14.4838 20.3668L14 20.0993L13.5162 20.3668L14 21.242ZM7.20163 25L6.21467 24.839L5.88314 26.8715L7.68542 25.8752L7.20163 25ZM8.5 17.0403L9.48696 17.2013L9.56821 16.7032L9.21576 16.342L8.5 17.0403ZM3 11.4033L2.84897 10.4147L0.925167 10.7087L2.28424 12.1016L3 11.4033ZM10.6008 10.242L10.7518 11.2305L11.2793 11.1499L11.5061 10.6668L10.6008 10.242ZM14 3L14.9052 2.5751L14 0.64649L13.0948 2.5751L14 3ZM17.3992 10.242L16.4939 10.6668L16.7207 11.1499L17.2482 11.2305L17.3992 10.242ZM25 11.4033L25.7158 12.1016L27.0748 10.7087L25.151 10.4147L25 11.4033ZM19.5 17.0403L18.7842 16.342L18.4318 16.7032L18.513 17.2013L19.5 17.0403ZM20.7984 25L20.3146 25.8752L22.1169 26.8715L21.7853 24.839L20.7984 25ZM13.5162 20.3668L6.71784 24.1248L7.68542 25.8752L14.4838 22.1171L13.5162 20.3668ZM8.18858 25.161L9.48696 17.2013L7.51304 16.8793L6.21467 24.839L8.18858 25.161ZM9.21576 16.342L3.71576 10.7049L2.28424 12.1016L7.78424 17.7387L9.21576 16.342ZM3.15103 12.3918L10.7518 11.2305L10.4498 9.25342L2.84897 10.4147L3.15103 12.3918ZM11.5061 10.6668L14.9052 3.4249L13.0948 2.5751L9.69557 9.81705L11.5061 10.6668ZM13.0948 3.4249L16.4939 10.6668L18.3044 9.81705L14.9052 2.5751L13.0948 3.4249ZM17.2482 11.2305L24.849 12.3918L25.151 10.4147L17.5502 9.25342L17.2482 11.2305ZM24.2842 10.7049L18.7842 16.342L20.2158 17.7387L25.7158 12.1016L24.2842 10.7049ZM18.513 17.2013L19.8114 25.161L21.7853 24.839L20.487 16.8793L18.513 17.2013ZM21.2822 24.1248L14.4838 20.3668L13.5162 22.1171L20.3146 25.8752L21.2822 24.1248Z" fill="#1F6DE2"/>
</svg>
