<svg width="26" height="38" fill="none" xmlns="http://www.w3.org/2000/svg"><path d="M13 0C5.889 0 .104 5.785.104 12.896c0 2.858 1.682 7.204 5.294 13.677a146.95 146.95 0 005.022 8.305l1.774 2.688a.966.966 0 001.613 0l1.773-2.688c.102-.155 2.538-3.854 5.022-8.305 3.612-6.473 5.294-10.819 5.294-13.677C25.896 5.786 20.111 0 13 0zm5.914 25.631a143.186 143.186 0 01-4.947 8.182L13 35.28l-.966-1.465a144.734 144.734 0 01-4.948-8.183c-3.351-6.004-5.05-10.289-5.05-12.735C2.036 6.851 6.954 1.933 13 1.933S23.964 6.85 23.964 12.896c0 2.446-1.699 6.731-5.05 12.735z" fill="#F2F2F2"/><path d="M13 5.666a7.157 7.157 0 00-7.15 7.15 7.157 7.157 0 007.15 7.15 7.157 7.157 0 007.15-7.15A7.157 7.157 0 0013 5.666zm0 12.368a5.224 5.224 0 01-5.218-5.218A5.224 5.224 0 0113 7.598a5.224 5.224 0 015.218 5.218A5.224 5.224 0 0113 18.034z" fill="#F2F2F2"/></svg>