<svg width="34" height="55" fill="none" xmlns="http://www.w3.org/2000/svg"><path d="M33 40.534C33 48.339 26.706 54 21.719 54c-4.016 0 .356-3.158-3.028-5.66C16.58 46.44 14 44.586 14 40.533 14 35.268 18.253 31 23.5 31s9.5 4.268 9.5 9.534zM29 41a6 6 0 00-6-6" stroke="#181818" stroke-width="2" stroke-linecap="round" stroke-linejoin="round"/><path d="M1 40c0 7.732 6.268 14 14 14" stroke="#181818" stroke-width="2" stroke-linecap="round"/><path d="M20.316 3.534A3 3 0 0123.279 1h.442a3 3 0 012.963 2.534l3.771 24A3 3 0 0127.492 31h-7.984a3 3 0 01-2.963-3.466l3.77-24zM17 24h12" stroke="#181818" stroke-width="2"/></svg>