<svg width="88" height="88" fill="none" xmlns="http://www.w3.org/2000/svg"><path fill="#F6F6F6" d="M4 0h80v80H4z"/><g opacity=".2" filter="url(#filter0_f_7359_3)"><circle cx="44" cy="44" r="39" stroke="url(#paint0_linear_7359_3)" stroke-width="2"/></g><circle cx="44" cy="40" r="39" stroke="url(#paint1_linear_7359_3)" stroke-width="2"/><path d="M38 57h13" stroke="#1F6DE2" stroke-width="2" stroke-linecap="round"/><path fill-rule="evenodd" clip-rule="evenodd" d="M37.998 27.5c0-.552-.45-1.008-.997-.93A7.002 7.002 0 0031 33.5v13a7 7 0 007 7h13a7 7 0 007-7v-13a7.002 7.002 0 00-5.997-6.929c-.547-.078-.998.377-.998.93 0 .552.452.989.993 1.098A5.002 5.002 0 0156 33.5v13a5 5 0 01-5 5H38a5 5 0 01-5-5v-13c0-2.42 1.72-4.44 4.005-4.901.541-.11.993-.547.993-1.099zm4.5 0a1 1 0 001 1h2.004a1 1 0 000-2h-2.004a1 1 0 00-1 1z" fill="#1F6DE2"/><path d="M47.752 25.5a1 1 0 012 0v3.995a1 1 0 11-2 0V25.5z" fill="#1F6DE2"/><rect x="39.25" y="24.5" width="2" height="6" rx="1" fill="#1F6DE2"/><path d="M40 40.039l3.526 3.464 6.474-6" stroke="#1F6DE2" stroke-width="2" stroke-linecap="round"/><defs><linearGradient id="paint0_linear_7359_3" x1="4" y1="84" x2="89.858" y2="73.29" gradientUnits="userSpaceOnUse"><stop stop-color="#1F6DE2"/><stop offset="1" stop-color="#1C77FF"/></linearGradient><linearGradient id="paint1_linear_7359_3" x1="4" y1="80" x2="89.858" y2="69.29" gradientUnits="userSpaceOnUse"><stop stop-color="#1F6DE2"/><stop offset="1" stop-color="#1C77FF"/></linearGradient><filter id="filter0_f_7359_3" x="0" y="0" width="88" height="88" filterUnits="userSpaceOnUse" color-interpolation-filters="sRGB"><feFlood flood-opacity="0" result="BackgroundImageFix"/><feBlend in="SourceGraphic" in2="BackgroundImageFix" result="shape"/><feGaussianBlur stdDeviation="2" result="effect1_foregroundBlur_7359_3"/></filter></defs></svg>