<svg width="26" height="26" fill="none" xmlns="http://www.w3.org/2000/svg"><mask id="a" fill="#fff"><rect width="9" height="9" rx=".5" transform="matrix(-1 0 0 1 11.75 2.75)"/></mask><rect width="9" height="9" rx=".5" transform="matrix(-1 0 0 1 11.75 2.75)" stroke="#1F6DE2" stroke-width="4" mask="url(#a)"/><mask id="b" fill="#fff"><rect width="8.251" height="8.25" rx=".5" transform="scale(-1 1) rotate(-45 -4.05 33.678)"/></mask><rect width="8.251" height="8.25" rx=".5" transform="scale(-1 1) rotate(-45 -4.05 33.678)" stroke="#1F6DE2" stroke-width="4" mask="url(#b)"/><path d="M10.75 22.25v-7h-7v7h7z" stroke="#1F6DE2" stroke-width="2"/><mask id="c" fill="#fff"><rect width="9" height="9" rx=".5" transform="matrix(-1 0 0 1 23.5 14.25)"/></mask><rect width="9" height="9" rx=".5" transform="matrix(-1 0 0 1 23.5 14.25)" stroke="#1F6DE2" stroke-width="4" mask="url(#c)"/></svg>