<svg width="80" height="80" fill="none" xmlns="http://www.w3.org/2000/svg"><path fill="#F6F6F6" d="M0 0h80v80H0z"/><path d="M34 57h13" stroke="#1F6DE2" stroke-width="2" stroke-linecap="round"/><path fill-rule="evenodd" clip-rule="evenodd" d="M33.998 27.5c0-.552-.45-1.007-.997-.93A7.002 7.002 0 0027 33.5v13a7 7 0 007 7h13a7 7 0 007-7v-13a7.001 7.001 0 00-5.997-6.929c-.547-.078-.998.377-.998.93 0 .552.452.989.993 1.099A5.002 5.002 0 0152 33.5v13a5 5 0 01-5 5H34a5 5 0 01-5-5v-13c0-2.42 1.72-4.44 4.005-4.901.541-.11.993-.547.993-1.099zm4.5 0a1 1 0 001 1h2.004a1 1 0 100-2h-2.004a1 1 0 00-1 1z" fill="#1F6DE2"/><path d="M43.752 25.5a1 1 0 012 0v3.995a1 1 0 11-2 0V25.5z" fill="#1F6DE2"/><rect x="35.25" y="24.5" width="2" height="6" rx="1" fill="#1F6DE2"/><path d="M36 40.039l3.526 3.464 6.474-6" stroke="#1F6DE2" stroke-width="2" stroke-linecap="round"/></svg>