<svg width="18" height="18" fill="none" xmlns="http://www.w3.org/2000/svg"><path d="M17.182 9.075v-2.53c0-.857-.665-1.555-1.506-1.623L13.326.82a1.617 1.617 0 00-2.22-.599L3.05 4.91H1.637C.734 4.91 0 5.642 0 6.545v9.818C0 17.266.734 18 1.637 18h13.909c.902 0 1.636-.734 1.636-1.636v-2.53c.475-.17.818-.62.818-1.152v-2.455c0-.532-.343-.982-.818-1.152zM14.725 4.91H11.16l2.674-1.557.891 1.557zm-1.298-2.267L9.534 4.91H7.918l5.106-2.972.403.705zM11.517.928a.802.802 0 011.099.298l.001.001-6.325 3.682H4.678l6.84-3.981zm4.847 15.436a.82.82 0 01-.818.818H1.636a.82.82 0 01-.817-.818V6.546a.82.82 0 01.818-.819h13.909a.82.82 0 01.818.819V9h-2.455a2.457 2.457 0 00-2.454 2.455 2.457 2.457 0 002.454 2.454h2.455v2.455zm.818-3.682a.41.41 0 01-.409.409h-2.864a1.638 1.638 0 01-1.636-1.636c0-.903.734-1.637 1.636-1.637h2.864a.41.41 0 01.41.41v2.454z" fill="#fff"/><path d="M13.909 10.636a.82.82 0 000 1.637.82.82 0 000-1.636z" fill="#fff"/></svg>