<svg width="30" height="30" fill="none" xmlns="http://www.w3.org/2000/svg"><path d="M13.49 3.152c.857 0 1.557-.7 1.557-1.557 0-.856-.7-1.556-1.556-1.556-.234 0-.39.156-.39.389s.156.39.39.39a.78.78 0 01.778.777.78.78 0 01-.778.779c-.856 0-1.557.7-1.557 1.556-.038.856.662 1.556 1.557 1.556.233 0 .389-.155.389-.389 0-.233-.156-.389-.39-.389a.78.78 0 01-.777-.778.78.78 0 01.778-.778zm3.075-.039c.856 0 1.556-.7 1.556-1.557C18.121.7 17.421 0 16.565 0c-.234 0-.39.156-.39.39 0 .233.156.388.39.388a.78.78 0 01.778.778.78.78 0 01-.778.779c-.856 0-1.557.7-1.557 1.556 0 .856.7 1.556 1.557 1.556.233 0 .389-.155.389-.389 0-.233-.156-.389-.39-.389a.78.78 0 01-.777-.778.78.78 0 01.778-.778z" fill="#A4ACAD"/><path d="M26.954 5.058a.374.374 0 00-.506.234l-2.296 5.72h-.467L21.156 7.16c-.078-.117-.194-.195-.311-.195H9.405a.354.354 0 00-.311.156l-2.88 3.852h-.35L3.57 5.253c-.078-.195-.312-.311-.506-.234-.195.078-.311.312-.234.506l2.374 5.915 1.323 17.782v.428c0 .194.194.35.389.35h16.187c.194 0 .389-.156.389-.35l1.284-18.171 2.373-5.915c.117-.233 0-.428-.194-.506zM9.6 7.743h11.05l2.102 3.269H7.187L9.6 7.743zm14.124 4.047l-8.716 9.027-8.755-9.027h17.471zm-17.665.934l8.366 8.677-7.199 7.004L6.06 12.724zm1.44 16.498l7.47-7.277 7.238 7.277H7.499zm15.292-.467l-7.238-7.393 8.405-8.716-1.167 16.109z" fill="#A4ACAD"/></svg>