<svg width="34" height="55" viewBox="0 0 34 55" fill="none" xmlns="http://www.w3.org/2000/svg">
<path d="M33 40.5337C33 48.3394 26.7062 54 21.7187 54C17.703 54 22.075 50.842 18.6906 48.3394C16.5812 46.4402 14 44.5873 14 40.5337C14 35.2684 18.2533 31 23.5 31C28.7467 31 33 35.2684 33 40.5337Z" stroke="#181818" stroke-width="2" stroke-linecap="round" stroke-linejoin="round"/>
<path d="M29 41C29 37.6863 26.3137 35 23 35" stroke="#181818" stroke-width="2" stroke-linecap="round" stroke-linejoin="round"/>
<path d="M1 40C1 47.732 7.26801 54 15 54" stroke="#181818" stroke-width="2" stroke-linecap="round"/>
<path d="M20.3156 3.53433C20.5449 2.07516 21.8022 1 23.2793 1H23.7207C25.1978 1 26.4551 2.07516 26.6844 3.53433L30.4554 27.5343C30.7415 29.3545 29.3343 31 27.4918 31H19.5082C17.6657 31 16.2585 29.3545 16.5446 27.5343L20.3156 3.53433Z" stroke="#181818" stroke-width="2"/>
<path d="M17 24H29" stroke="#181818" stroke-width="2"/>
</svg>
