<svg width="18" height="21" viewBox="0 0 18 21" fill="none" xmlns="http://www.w3.org/2000/svg">
<path fill-rule="evenodd" clip-rule="evenodd" d="M8.99413 21C2.99804 18.4486 0 15.9031 0 13.3636V3.81818C0 3.08548 0.294407 2.91519 1.1092 2.44391C1.3559 2.30122 1.65031 2.13093 1.9987 1.90909C2.16038 1.80613 5.55958 0 8.99413 0C11.9874 0 14.4905 0.954545 15.9896 1.90909C16.3379 2.13093 16.6323 2.30121 16.879 2.4439L16.8791 2.44391C17.6939 2.91519 17.9883 3.08548 17.9883 3.81818C18.008 4.02551 17.9983 8.43418 17.9921 11.2574V11.2586L17.9921 11.2611C17.99 12.2227 17.9883 12.9998 17.9883 13.3636C17.9883 15.9091 14.9902 18.4545 8.99413 21ZM15.9885 13.4594C15.9885 13.2395 15.9891 12.871 15.9903 12.2702L15.9944 10.4049C15.9957 9.80147 15.9967 9.28364 15.9975 8.78948C16.0012 6.6579 16.0002 4.82839 15.9981 4.26255L15.8608 4.18111C15.5377 3.98954 15.1166 3.73986 14.88 3.58913C13.405 2.64929 11.2526 2 8.99425 2C6.83412 2 4.02697 3.00392 3.10849 3.58913C2.87192 3.73986 2.45079 3.98956 2.12769 4.18113L2.12767 4.18114L2 4.25686V13.4594C2 14.8999 4.22728 16.8674 8.99518 19C13.7625 16.8721 15.9885 14.9054 15.9885 13.4594ZM11.648 7L7.544 11.2198L5.35199 8.96593L4 10.356L7.544 14L13 8.39012L11.648 7Z" fill="#1F6DE2"/>
</svg>
