<svg width="948" height="536" fill="none" xmlns="http://www.w3.org/2000/svg"><path d="M355.074 110.341c-10.86-39.822-62.441-72.408-97.162-88.834C215.62 1.5 156.334-7.328 113.557 16.263c-29.31 16.165-55.506 41.022-76.65 66.626-15.835 19.175-39.529 50.555-33.467 78.346 7.803 35.771 57.385 50.175 85.287 59.531 75.257 25.236 153.825 40.18 229.796 63.233 33.55 10.181 85.032 17.585 99.629 55.367 4.585 11.867 11.022 34.289 7.249 47.039-8.526 28.812-62.914 41.556-83.745 48.581-52.255 17.621-106.02 31.509-160.857 38.093-11.717 1.407-23.526 1.979-35.317 2.468-9.967.413-34.375 4.446-29.612-4.318 10.285-18.924 65.059-36.694 81.894-44.417 53.22-24.415 108.766-42.88 165.021-58.915 46.81-13.342 94.081-25.148 142.505-30.845 24.213-2.848 56.661-6.973 80.814 1.234 33.116 11.253 31.026 63.638 16.656 87.909-37.925 64.057-115.897 96.861-186.921 105.181-35.225 4.127-73.15 3.428-107.804-4.626-3.721-.865-37.284-4.652-26.681-22.517 13.028-21.951 71.613-51.36 83.591-57.835 75.295-40.7 153.996-75.075 232.88-108.112 40.727-17.057 82.105-34.713 124.614-47.039 58.863-17.066 133.457-1.076 181.061 37.323 31.342 25.281 53.14 77.615 38.093 117.52-3.902 10.35-11.705 19.586-22.979 19.586" stroke="#ECFFDC" stroke-width="3" stroke-linecap="round"/></svg>