<svg width="95" height="95" fill="none" xmlns="http://www.w3.org/2000/svg"><rect width="95" height="95" rx="47.5" fill="#BA9FB7"/><path d="M58.154 49.857h-6.532A3.245 3.245 0 0048.38 53.1v5.01a3.245 3.245 0 003.242 3.241h6.532a3.245 3.245 0 003.241-3.242v-5.01a3.245 3.245 0 00-3.241-3.24zm.884 8.252a.887.887 0 01-.884.884h-6.532a.887.887 0 01-.884-.885v-5.01c0-.49.402-.883.884-.883h6.532c.49 0 .884.403.884.884v5.01z" fill="#fff"/><path d="M72.073 40.752c0-.206-.05-.403-.158-.58L64.765 27.6a1.188 1.188 0 00-1.022-.599H32.32c-.422 0-.815.226-1.022.6l-7.14 12.572a1.191 1.191 0 00-.158.58c0 2.819 1.7 5.235 4.126 6.306v20.736c0 .648.53 1.179 1.178 1.179h37.454c.649 0 1.18-.53 1.18-1.18V47.206c0-.049 0-.088-.01-.127 2.435-1.071 4.145-3.497 4.145-6.326zM33.008 29.367h30.047l5.59 9.833H27.427l5.58-9.833zm25.205 12.18a4.528 4.528 0 01-4.46 3.733 4.528 4.528 0 01-4.46-3.733h8.92zm-11.424 0a4.528 4.528 0 01-4.46 3.733 4.546 4.546 0 01-4.47-3.733h8.93zm-20.353 0h8.929a4.538 4.538 0 01-4.47 3.733c-2.23.01-4.086-1.61-4.459-3.733zm17.367 25.068h-6.778v-12.72c0-.924.747-1.68 1.68-1.68h3.428c.923 0 1.68.747 1.68 1.68v12.72h-.01zm21.777 0H46.16v-12.72a4.043 4.043 0 00-4.037-4.037h-3.428a4.043 4.043 0 00-4.037 4.037v12.73h-4.175V47.638c.137.01.275.01.413.01a6.887 6.887 0 005.716-3.046 6.887 6.887 0 0011.434 0 6.87 6.87 0 0011.414 0 6.887 6.887 0 005.717 3.045c.137 0 .265-.01.403-.01v18.978zm-.403-21.325a4.528 4.528 0 01-4.46-3.733h8.93a4.556 4.556 0 01-4.47 3.733z" fill="#fff"/></svg>