<svg width="96" height="96" fill="none" xmlns="http://www.w3.org/2000/svg"><rect x=".063" y=".116" width="95" height="95" rx="47.5" fill="#BA9FB7"/><path d="M38.108 42.824c0-.83-.679-1.509-1.508-1.509H24.508c-.83 0-1.508.68-1.508 1.509 0 .83.679 1.508 1.508 1.508H36.6c.83 0 1.508-.679 1.508-1.508zm33.032-1.509H59.047c-.83 0-1.508.68-1.508 1.509 0 .83.678 1.508 1.508 1.508h12.091c.83 0 1.509-.679 1.509-1.508 0-.83-.666-1.509-1.509-1.509zm-23.316-8.207c.83 0 1.508-.679 1.508-1.508V19.508c0-.83-.679-1.508-1.508-1.508-.83 0-1.508.679-1.508 1.508V31.6c0 .83.678 1.508 1.508 1.508zm7.931 3.293c.39 0 .767-.15 1.068-.44l8.56-8.56a1.51 1.51 0 10-2.137-2.136l-8.56 8.56a1.51 1.51 0 000 2.136c.302.29.692.44 1.069.44zm-16.931-.44a1.514 1.514 0 002.137 0 1.51 1.51 0 000-2.137l-8.56-8.56a1.51 1.51 0 10-2.137 2.137l8.56 8.56z" fill="#fff"/><path d="M65.948 52.338a6.26 6.26 0 00-4.06-1.52h-8.634v-6.096c0-2.916-.868-5.04-2.59-6.31-2.715-1.986-6.397-.867-6.56-.817a1.509 1.509 0 00-1.056 1.433v7.353c0 2.237-1.069 4.135-3.193 5.656-1.609 1.156-3.255 1.684-3.469 1.747l-.15.038a3.086 3.086 0 00-2.326-1.044h-5.731a3.111 3.111 0 00-3.105 3.105v18.803a3.111 3.111 0 003.104 3.105h5.757a3.06 3.06 0 001.986-.73 6.33 6.33 0 004.424 1.823h18.012c1.81 0 3.406-.44 4.625-1.257 1.559-1.056 2.526-2.727 2.803-4.864l2.325-14.454c.365-2.238-.465-4.525-2.162-5.97zM34.023 74.686c0 .05-.038.088-.088.088h-5.757a.086.086 0 01-.088-.088V55.883c0-.05.038-.088.088-.088h5.757c.05 0 .088.038.088.088v18.803zm31.108-16.842l-2.325 14.48c0 .012 0 .037-.012.062-.101.867-.428 3.494-4.437 3.494H40.345c-1.609 0-3.016-1.206-3.268-2.803a3.93 3.93 0 00-.037-.176V56.738l.088-.026c.025 0 .037-.012.062-.012.088-.025 2.225-.629 4.35-2.15 2.953-2.098 4.524-4.926 4.524-8.17v-6.108c.83-.088 1.974-.05 2.816.566.905.666 1.357 1.973 1.357 3.871v7.604c0 .83.679 1.508 1.508 1.508H61.89c.754 0 1.495.29 2.099.792.904.78 1.332 2.011 1.143 3.23z" fill="#fff"/></svg>