<svg width="387" height="600" fill="none" xmlns="http://www.w3.org/2000/svg"><mask id="a" fill="#fff"><path d="M86.194 573.26c0 15.262 12.397 27.765 27.594 26.362A300.002 300.002 0 00242.663 44.93 300 300 0 0019.697 8.356C4.816 11.739-3.088 27.473 1.65 41.98c4.737 14.508 20.325 22.263 35.274 19.19a244.734 244.734 0 1176.845 482.899c-15.164 1.72-27.574 13.93-27.574 29.191z"/></mask><path d="M86.194 573.26c0 15.262 12.397 27.765 27.594 26.362A300.002 300.002 0 00242.663 44.93 300 300 0 0019.697 8.356C4.816 11.739-3.088 27.473 1.65 41.98c4.737 14.508 20.325 22.263 35.274 19.19a244.734 244.734 0 1176.845 482.899c-15.164 1.72-27.574 13.93-27.574 29.191z" stroke="url(#paint0_linear_32_335)" stroke-width="74" mask="url(#a)"/><defs><linearGradient id="paint0_linear_32_335" x1="109.207" y1="22.267" x2="93.83" y2="589.178" gradientUnits="userSpaceOnUse"><stop stop-color="#fff" stop-opacity="0"/><stop offset="1" stop-color="#09A66D"/></linearGradient></defs></svg>