<svg width="41" height="31" fill="none" xmlns="http://www.w3.org/2000/svg"><path d="M3.507 7.55h6.18a.586.586 0 100-1.171h-6.18a.586.586 0 100 1.171zm5.968 2.821H7.033a.586.586 0 100 1.172h2.442a.586.586 0 100-1.172zm-8.419 4.064h5.977a.586.586 0 100-1.172H1.056a.586.586 0 100 1.172zm9.216 10.387a.586.586 0 00-.586-.586h-6.18a.586.586 0 000 1.172h6.18a.586.586 0 00.586-.586zm-.797-4.578H7.033a.586.586 0 100 1.172h2.442a.586.586 0 100-1.172zM7.62 17.938a.586.586 0 00-.587-.586H1.056a.586.586 0 000 1.172h5.977a.586.586 0 00.586-.586zm17.813-9.089a.586.586 0 00.586-.586v-.894a.586.586 0 10-1.172 0v.894c0 .324.262.586.586.586zm6.442.602a.586.586 0 00-.828 0l-.633.633a.586.586 0 00.83.828l.631-.632a.586.586 0 000-.829zm1.188 5.856a.586.586 0 100 1.172h.894a.586.586 0 100-1.171h-.894zm-1.82 5.568a.586.586 0 00-.829.828l.633.633a.586.586 0 00.828-.829l-.632-.632zm-6.396 2.649v.894a.586.586 0 001.172 0v-.894a.586.586 0 10-1.172 0zm-5.224-2.649l-.632.632a.586.586 0 00.828.829l.633-.633a.586.586 0 00-.829-.828zm-2.715-5.568a.586.586 0 100 1.172h.894a.586.586 0 000-1.171h-.894zm3.544-5.223l-.633-.633a.586.586 0 00-.828.829l.632.632a.586.586 0 10.829-.829zm8.132 5.809a.586.586 0 00-.586-.586h-1.98v-4.35a.586.586 0 10-1.171 0v4.936c0 .324.262.586.586.586h2.565a.586.586 0 00.586-.585z" fill="#09A66D"/><path d="M36.543 15.797a.586.586 0 00.55-.62C36.72 9.026 31.598 4.21 25.433 4.21c-6.442 0-11.682 5.24-11.682 11.682s5.24 11.683 11.682 11.683c5.77 0 10.695-4.229 11.552-9.934a.586.586 0 00-1.16-.174c-.769 5.126-5.195 8.936-10.392 8.936-5.796 0-10.51-4.715-10.51-10.51 0-5.796 4.714-10.51 10.51-10.51 5.547 0 10.154 4.332 10.49 9.864.02.322.297.568.62.549z" fill="#09A66D"/><path d="M25.433.857c-2.06 0-4.08.427-5.939 1.227H9.156a.586.586 0 100 1.172h8.134a15.021 15.021 0 00-3.005 2.547.586.586 0 00.869.787 13.895 13.895 0 0110.28-4.561c7.644 0 13.864 6.22 13.864 13.864 0 7.645-6.22 13.865-13.865 13.865-7.645 0-13.865-6.22-13.865-13.865 0-2.677.765-5.275 2.212-7.514a.586.586 0 10-.984-.636 14.983 14.983 0 00-2.4 8.15c0 5.295 2.75 9.958 6.898 12.638H9.156a.586.586 0 100 1.172h10.33a14.95 14.95 0 005.947 1.227c8.292 0 15.037-6.745 15.037-15.037 0-8.29-6.745-15.036-15.037-15.036z" fill="#09A66D"/></svg>