<svg width="25" height="20" fill="none" xmlns="http://www.w3.org/2000/svg"><path d="M24.1 2.348c-.892.392-1.843.651-2.834.777A4.893 4.893 0 0023.43.405a9.833 9.833 0 01-3.12 1.192 4.919 4.919 0 00-8.51 3.365c0 .389.033.764.114 1.121-4.09-.2-7.71-2.16-10.141-5.146a4.954 4.954 0 00-.674 2.487c0 1.704.878 3.214 2.186 4.089a4.859 4.859 0 01-2.223-.606v.054a4.943 4.943 0 003.942 4.834c-.4.11-.837.162-1.29.162a4.35 4.35 0 01-.932-.084c.638 1.949 2.447 3.381 4.598 3.428a9.886 9.886 0 01-6.1 2.098 9.31 9.31 0 01-1.178-.067A13.852 13.852 0 007.65 19.54c9.054 0 14.004-7.5 14.004-14.001 0-.218-.008-.428-.018-.636A9.816 9.816 0 0024.1 2.348z" fill="#222"/></svg>