<svg width="30" height="30" fill="none" xmlns="http://www.w3.org/2000/svg"><path d="M22.608 11.274h-.353c-.157-3.764-3.177-6.784-6.902-6.98V.49c0-.235-.157-.392-.392-.392-.236 0-.392.157-.392.392v3.804a7.281 7.281 0 00-6.902 6.98h-.275c-.235 0-.392.157-.392.393v2c0 .235.157.392.392.392h.275l1.45 15.49c0 .196.197.353.393.353h10.784c.196 0 .353-.157.392-.353l1.451-15.49h.47c.236 0 .393-.157.393-.392v-2a.393.393 0 00-.392-.393zm-7.255-6.196a6.528 6.528 0 016.118 6.196h-6.118V5.079zm-.784 0v6.196H8.45a6.498 6.498 0 016.118-6.196zm-6.785 6.98h6.785v1.216H7.784V12.06zm.667 2h6.118v2.55H8.686l-.235-2.55zm11.49 15.06H9.863L8.765 17.353h5.804v6.784c0 .235.156.392.392.392.235 0 .392-.157.392-.392v-6.784h5.686l-1.098 11.765zm1.177-12.55h-5.765v-2.51h6l-.235 2.51zm1.098-3.294h-6.863V12.06h6.863v1.216z" fill="#A4ACAD"/><path d="M11.823 18.53a1.74 1.74 0 00-1.725 1.725 1.74 1.74 0 001.725 1.725 1.74 1.74 0 001.726-1.725 1.74 1.74 0 00-1.726-1.726zm0 2.666a.954.954 0 01-.94-.941c0-.51.43-.941.94-.941s.942.431.942.94c0 .51-.432.942-.942.942zm5.922 3.098a1.74 1.74 0 00-1.725 1.726c0 .94.745 1.725 1.725 1.725a1.74 1.74 0 001.726-1.725 1.74 1.74 0 00-1.726-1.726zm0 2.667a.954.954 0 01-.941-.941.93.93 0 01.941-.942c.51 0 .941.432.941.942s-.431.94-.94.94zm.235-7.883c-.784 0-1.45.667-1.45 1.451 0 .785.666 1.451 1.45 1.451.785 0 1.451-.666 1.451-1.45 0-.785-.666-1.452-1.45-1.452zm0 2.118a.687.687 0 01-.666-.667c0-.352.313-.666.666-.666.353 0 .667.314.667.666a.661.661 0 01-.667.667zm-5.254 3.373c-.785 0-1.452.666-1.452 1.45 0 .785.667 1.452 1.452 1.452.784 0 1.45-.667 1.45-1.451 0-.785-.666-1.451-1.45-1.451zm0 2.117a.687.687 0 01-.667-.666c0-.353.314-.667.667-.667.352 0 .666.314.666.667a.661.661 0 01-.666.666z" fill="#A4ACAD"/></svg>