<svg width="18" height="22" viewBox="0 0 18 22" fill="none" xmlns="http://www.w3.org/2000/svg">
<path fill-rule="evenodd" clip-rule="evenodd" d="M4 7V10.5L0 13.5V19H4C4 20.1046 4.89543 21 6 21H8V22H10V21H12C13.1046 21 14 20.1046 14 19H18V13.5L14 10.5V7C14 3.84392 12.0864 0 9 0C5.91356 0 4 3.84392 4 7ZM10 19H12V9V7C12 4.80724 10.6025 2 9 2C7.39748 2 6 4.80724 6 7V9V19H8V13H10V19ZM2 14.5L4 13V17H2V14.5ZM14 17V13L16 14.5V17H14ZM9 10C7.89543 10 7 9.10457 7 8C7 6.89543 7.89543 6 9 6C10.1046 6 11 6.89543 11 8C11 9.10457 10.1046 10 9 10Z" fill="#1F6DE2"/>
</svg>
