<svg width="26" height="26" viewBox="0 0 26 26" fill="none" xmlns="http://www.w3.org/2000/svg">
<path fill-rule="evenodd" clip-rule="evenodd" d="M12.7409 14.963L17.0729 10.7434L18.5 12.1335L12.7409 17.7432L9 14.0993L10.4271 12.7093L12.7409 14.963Z" fill="#1F6DE2"/>
<path fill-rule="evenodd" clip-rule="evenodd" d="M3.66035 7.27608C2.33133 9.1335 1.58294 11.3433 1.50983 13.6261C1.43671 15.9088 2.04216 18.162 3.24959 20.1006C4.45703 22.0393 6.21223 23.5764 8.29324 24.5175C10.3743 25.4586 12.6876 25.7615 14.9408 25.3879C17.1939 25.0143 19.2857 23.9809 20.9515 22.4184C22.6174 20.856 23.7825 18.8346 24.2995 16.61L24.2981 16.6097C24.4899 15.8021 24.5936 14.9654 24.5936 14.1074L22.5936 14.1075C22.5936 16.015 21.9603 17.8351 20.8976 19.4355L20.898 19.4358C20.5166 19.9859 20.0765 20.4971 19.5833 20.9597C18.206 22.2515 16.4765 23.1059 14.6136 23.4148C12.7507 23.7238 10.838 23.4733 9.11737 22.6952C7.39678 21.9171 5.94557 20.6462 4.94725 19.0433C3.94893 17.4404 3.44835 15.5775 3.5088 13.6901C3.56925 11.8027 4.18802 9.97561 5.28687 8.43989C6.38571 6.90416 7.91527 5.72877 9.68213 5.06235C10.8365 4.62695 12.0582 4.42158 13.2795 4.45073L12.0357 5.68005L13.4416 7.10251L16.1425 4.43309L16.8519 3.73195L16.1526 3.02075L13.1824 0L11.7563 1.40223L12.7875 2.45103C11.4913 2.48069 10.2024 2.72859 8.9763 3.19103C6.83934 3.99705 4.98937 5.41866 3.66035 7.27608Z" fill="#1F6DE2"/>
</svg>
